<!-- 
<svg version="1.0" xmlns="http://www.w3.org/2000/svg"
 width="119" height="500.000000pt" viewBox="0 0 118 30" fill="none" xmlns="http://www.w3.org/2000/svg">

<g transform="translate(0.000000,500.000000) scale(0.100000,-0.100000)"
fill="#000000" stroke="none">
<path d="M2325 4206 c-41 -18 -65 -57 -65 -105 0 -33 7 -46 35 -74 19 -19 35
-38 35 -43 0 -6 -36 -15 -79 -21 -225 -33 -436 -160 -537 -323 -30 -49 -39
-56 -60 -52 -25 5 -29 23 -15 72 9 32 -6 77 -29 90 -57 30 -120 -4 -120 -65 0
-27 7 -40 35 -62 47 -37 53 -71 21 -117 -60 -89 -62 -308 -4 -421 23 -44 53
-67 90 -70 29 -2 35 -8 49 -48 36 -101 126 -224 219 -300 55 -46 176 -109 250
-132 81 -24 286 -31 376 -12 230 49 408 191 505 403 34 72 46 90 60 87 29 -8
77 28 99 75 58 124 64 258 15 373 -36 85 -42 123 -20 140 72 59 81 86 44 133
-16 20 -29 26 -58 26 -64 0 -101 -64 -71 -120 14 -26 2 -50 -26 -50 -17 0 -32
13 -57 53 -59 92 -168 187 -282 244 -60 31 -192 70 -263 78 -34 4 -65 11 -68
17 -3 5 10 24 30 43 31 28 36 39 36 79 0 81 -75 133 -145 102z m73 -68 c7 -7
12 -21 12 -33 0 -46 -60 -63 -81 -22 -12 21 -11 21 7 7 19 -14 19 -14 0 7 -15
19 -16 25 -6 38 15 18 51 20 68 3z m185 -247 c37 -12 67 -25 67 -30 0 -4 -18
-59 -39 -122 -21 -63 -47 -141 -56 -174 -21 -74 -57 -129 -104 -158 -20 -12
-36 -30 -37 -39 -2 -56 -4 -63 -13 -49 -5 8 -7 20 -4 28 3 7 0 13 -6 13 -6 0
-11 -4 -11 -8 0 -5 -7 -17 -16 -28 -14 -18 -15 -17 -9 19 5 28 3 37 -9 37 -8
0 -19 -16 -25 -37 -10 -36 -10 -36 -6 -5 4 28 2 33 -13 30 -9 -2 -18 -13 -20
-26 -2 -12 -8 -22 -13 -22 -22 0 5 49 34 59 20 7 18 9 -16 22 -20 7 -37 18
-37 25 0 6 -6 17 -14 23 -11 9 -19 5 -40 -19 -34 -41 -36 -102 -4 -124 12 -9
18 -16 12 -16 -22 0 -54 33 -54 56 0 32 26 94 46 108 14 10 8 34 -47 201 -34
105 -64 195 -66 202 -5 12 55 33 148 53 76 16 275 5 352 -19z m-525 -62 c1 -9
-19 -23 -54 -38 -30 -13 -77 -44 -104 -68 -47 -42 -72 -44 -50 -4 17 32 174
134 195 128 6 -2 11 -10 13 -18z m695 -9 c66 -37 137 -97 137 -116 0 -20 -8
-18 -47 16 -19 17 -65 46 -103 65 -50 25 -68 39 -64 50 8 21 17 19 77 -15z
m-1176 -146 c-9 -9 -28 6 -21 18 4 6 10 6 17 -1 6 -6 8 -13 4 -17z m1603 11
c0 -8 -7 -15 -15 -15 -16 0 -20 12 -8 23 11 12 23 8 23 -8z m-1361 -117 c4
-194 42 -558 64 -609 12 -28 27 -42 69 -62 114 -54 324 -93 461 -84 111 6 303
50 370 84 63 31 76 63 93 223 7 69 18 163 23 210 6 47 14 145 17 217 8 147 10
150 60 61 l29 -53 1 -215 c1 -118 6 -229 12 -246 21 -66 -63 -235 -173 -346
-79 -80 -211 -153 -315 -173 -85 -17 -236 -17 -315 0 -100 20 -224 80 -292
140 -103 90 -206 259 -204 333 0 20 2 139 5 263 2 124 7 236 11 249 11 36 66
121 74 116 4 -3 8 -51 10 -108z m-199 -103 c-5 -27 -17 -75 -28 -105 -11 -30
-25 -71 -31 -90 -9 -30 -10 -22 -7 50 4 85 22 148 53 182 9 10 17 17 18 16 2
-2 -1 -25 -5 -53z m1529 -1 c24 -49 41 -127 41 -181 0 -45 -16 -34 -24 18 -4
22 -18 63 -31 89 -24 48 -34 120 -16 120 5 0 18 -21 30 -46z m-639 -94 c0 -28
-17 -34 -30 -11 -9 17 -8 19 5 15 11 -5 14 -2 8 12 -4 12 -3 15 5 10 7 -4 12
-16 12 -26z m-390 -20 c53 -56 53 -184 0 -240 -48 -52 -108 -38 -141 33 -24
53 -24 121 0 173 33 72 92 86 141 34z m340 -6 c0 -21 -4 -33 -10 -29 -17 10
-11 65 7 65 2 0 3 -16 3 -36z m267 14 c35 -39 46 -71 46 -128 0 -124 -88 -193
-156 -122 -61 64 -61 185 -1 246 34 33 82 35 111 4z m-197 -20 c0 -18 -2 -20
-9 -8 -6 8 -7 18 -5 22 9 14 14 9 14 -14z m37 -20 c-3 -8 -6 -5 -6 6 -1 11 2
17 5 13 3 -3 4 -12 1 -19z"/>
<path d="M1873 4171 c-84 -31 -150 -71 -218 -133 -68 -63 -84 -90 -65 -113 20
-24 41 -17 78 25 47 56 143 119 227 150 72 26 89 46 65 75 -16 19 -23 18 -87
-4z"/>
<path d="M2773 4179 c-7 -7 -13 -18 -13 -24 0 -15 33 -45 50 -45 37 0 163 -75
228 -135 75 -70 105 -79 110 -35 4 46 -111 149 -228 204 -90 43 -130 52 -147
35z"/>
<path d="M1850 3985 c-83 -43 -139 -98 -124 -123 18 -28 44 -26 78 6 17 16 59
44 94 61 63 32 76 53 50 79 -17 17 -25 15 -98 -23z"/>
<path d="M2786 4004 c-27 -27 -17 -45 38 -68 22 -9 64 -35 94 -58 57 -44 83
-44 90 -1 4 24 -80 92 -151 122 -58 25 -52 25 -71 5z"/>
<path d="M1680 1725 l0 -185 45 0 45 0 0 80 0 80 65 0 65 0 0 -80 0 -80 45 0
45 0 0 185 0 185 -45 0 -45 0 0 -70 0 -70 -65 0 -65 0 0 70 0 70 -45 0 -45 0
0 -185z"/>
<path d="M2176 1858 c-8 -29 -33 -113 -54 -185 l-40 -133 48 0 c47 0 48 1 57
38 l9 37 69 0 70 0 9 -37 c9 -37 10 -38 58 -38 47 0 49 1 42 23 -4 12 -28 94
-54 182 l-47 160 -76 3 -75 3 -16 -53z m114 -60 c6 -24 15 -57 20 -75 4 -17 5
-34 2 -37 -3 -3 -25 -6 -49 -6 -50 0 -51 2 -26 96 10 35 23 64 30 64 7 0 17
-19 23 -42z"/>
<path d="M2557 1882 c-26 -28 -27 -31 -27 -157 0 -126 1 -129 27 -157 26 -27
31 -28 123 -28 92 0 97 1 123 28 19 20 27 39 27 65 0 36 -1 37 -40 37 -32 0
-40 -4 -40 -19 0 -30 -25 -42 -77 -39 l-48 3 0 110 0 110 55 0 c53 0 55 -1 58
-27 3 -26 7 -28 48 -28 l44 0 0 37 c0 26 -8 45 -27 65 -26 27 -31 28 -123 28
-92 0 -97 -1 -123 -28z"/>
<path d="M2930 1725 l0 -185 45 0 45 0 0 53 c0 41 5 58 20 72 11 10 22 16 24
14 2 -2 21 -34 42 -71 l38 -68 48 0 48 0 -51 83 c-29 45 -59 92 -67 105 -14
21 -11 26 47 97 33 41 61 77 61 80 0 3 -21 5 -47 4 -47 0 -49 -1 -103 -72
l-55 -72 -3 73 -3 72 -44 0 -45 0 0 -185z"/>
<path d="M2185 1293 c2 -10 7 -39 10 -65 5 -39 10 -48 26 -48 23 0 25 6 34 78
l6 52 -40 0 c-32 0 -38 -3 -36 -17z"/>
<path d="M2397 1282 c-26 -28 -27 -31 -27 -157 0 -126 1 -129 27 -157 26 -27
30 -28 133 -28 103 0 107 1 133 28 27 28 27 30 27 163 0 129 -1 137 -23 157
-21 20 -34 22 -133 22 -108 0 -111 -1 -137 -28z m201 -54 c18 -18 16 -192 -2
-207 -9 -7 -38 -11 -73 -9 l-58 3 -3 99 c-1 55 0 106 2 113 7 17 117 18 134 1z"/>
<path d="M2806 1268 c10 -79 14 -88 34 -88 14 0 21 9 25 38 3 20 8 49 10 65 4
26 3 27 -35 27 l-40 0 6 -42z"/>
<path d="M1540 698 c0 -7 20 -89 43 -183 l43 -170 82 -3 81 -3 10 38 c5 21 26
99 45 174 20 74 36 141 36 147 0 8 -18 12 -49 12 l-48 0 -29 -141 c-16 -77
-32 -146 -36 -152 -14 -23 -25 9 -53 151 l-28 142 -48 0 c-33 0 -49 -4 -49
-12z"/>
<path d="M1960 679 c0 -22 5 -32 20 -36 19 -5 20 -14 20 -119 0 -107 -1 -114
-20 -114 -16 0 -20 -7 -20 -35 l0 -35 85 0 85 0 0 35 c0 28 -4 35 -20 35 -19
0 -20 7 -20 115 0 108 1 115 20 115 16 0 20 7 20 35 l0 35 -85 0 -85 0 0 -31z"/>
<path d="M2257 682 c-39 -40 -39 -114 0 -154 25 -26 33 -28 103 -28 80 0 100
-9 100 -45 0 -38 -19 -45 -117 -45 l-93 0 0 -35 0 -35 118 0 118 0 32 33 c27
28 32 40 32 83 0 43 -4 54 -32 82 -31 29 -39 31 -113 34 l-80 3 0 30 0 30 103
3 102 3 0 34 0 35 -123 0 c-122 0 -124 0 -150 -28z"/>
<path d="M2640 679 c0 -22 5 -32 20 -36 19 -5 20 -14 20 -119 0 -107 -1 -114
-20 -114 -16 0 -20 -7 -20 -35 l0 -35 85 0 85 0 0 35 c0 28 -4 35 -20 35 -19
0 -20 7 -20 115 0 108 1 115 20 115 16 0 20 7 20 35 l0 35 -85 0 -85 0 0 -31z"/>
<path d="M2937 682 c-26 -28 -27 -31 -27 -157 0 -126 1 -129 27 -157 26 -27
30 -28 133 -28 l106 0 32 33 32 33 0 124 c0 121 -1 125 -27 152 -26 27 -29 28
-138 28 -109 0 -112 -1 -138 -28z m211 -146 c3 -122 0 -128 -82 -124 l-61 3
-3 99 c-1 55 0 106 2 113 4 10 23 13 73 11 l68 -3 3 -99z"/>
<path d="M3350 525 l0 -185 45 0 45 0 0 110 c0 63 4 110 10 110 5 0 37 -49 70
-110 l62 -110 39 0 39 0 0 185 0 185 -40 0 -40 0 0 -112 -1 -113 -62 112 -62
112 -52 1 -53 0 0 -185z"/>
</g>
</svg> -->



<svg width="118" height="30" viewBox="0 0 118 30" fill="none" xmlns="http://www.w3.org/2000/svg">
    <path d="M30.003 13.3516V15.8242C30.003 20.1374 28.6474 23.5852 25.9362 26.1676C23.2527 28.7225 19.836 30 15.6862 30C11.1768 30 7.42813 28.5577 4.44028 25.6731C1.48009 22.7885 0 19.2445 0 15.0412C0 10.8379 1.46626 7.28022 4.39878 4.36813C7.35897 1.45604 10.9693 0 15.2297 0C17.9409 0 20.417 0.604396 22.6579 1.81319C24.9264 3.02198 26.6832 4.61538 27.9281 6.59341L22.2844 9.80769C21.6481 8.81868 20.6936 8.00824 19.421 7.37637C18.1761 6.74451 16.7652 6.42857 15.1882 6.42857C12.726 6.42857 10.6788 7.23901 9.04655 8.85989C7.44196 10.4808 6.63967 12.5549 6.63967 15.0824C6.63967 17.5824 7.46963 19.6291 9.12954 21.2225C10.7895 22.7885 13.0027 23.5714 15.7692 23.5714C19.6147 23.5714 22.0907 22.0879 23.1973 19.1209H15.4372V13.3516H30.003Z" fill="white"/>
    <path d="M44.7432 0.576923C47.5927 0.576923 49.9996 1.53846 51.9638 3.46154C53.9281 5.38462 54.9102 7.71978 54.9102 10.467C54.9102 13.2143 53.9281 15.5495 51.9638 17.4725C49.9996 19.3956 47.5927 20.3571 44.7432 20.3571H40.3859V29.4231H33.7462V0.576923H44.7432ZM44.7432 14.1758C45.7668 14.1758 46.6106 13.8187 47.2746 13.1044C47.9385 12.3901 48.2705 11.511 48.2705 10.467C48.2705 9.42308 47.9385 8.54396 47.2746 7.82967C46.6106 7.11538 45.7668 6.75824 44.7432 6.75824H40.3859V14.1758H44.7432Z" fill="white"/>
    <path d="M77.3223 0.576923V6.92308H69.8527V29.4231H63.213V6.92308H55.7434V0.576923H77.3223Z" fill="white"/>
    <path d="M78.162 20.0687V14.1346H93.9312V20.0687H78.162Z" fill="white"/>
    <path d="M111.817 12.2802C113.67 12.9121 115.164 13.9423 116.299 15.3709C117.433 16.772 118 18.4341 118 20.3571C118 23.3791 116.976 25.7418 114.929 27.4451C112.882 29.1484 110.378 30 107.418 30C105.122 30 103.061 29.478 101.235 28.4341C99.4366 27.3901 98.1087 25.8516 97.251 23.8187L102.978 20.522C103.697 22.5549 105.177 23.5714 107.418 23.5714C108.718 23.5714 109.7 23.2692 110.364 22.6648C111.028 22.0604 111.36 21.2912 111.36 20.3571C111.36 19.4231 111.028 18.6538 110.364 18.0495C109.7 17.4451 108.718 17.1429 107.418 17.1429H106.049L103.517 13.3929L108.787 6.75824H98.164V0.576923H116.838V5.93407L111.817 12.2802Z" fill="white"/>
</svg>